<svg width="329" height="341" viewBox="0 0 329 341" fill="none" xmlns="http://www.w3.org/2000/svg">
<path d="M14.3497 29.5809C22.2747 29.5809 28.6989 23.1564 28.6989 15.2314C28.6989 7.30644 22.2747 0.881958 14.3497 0.881958C6.4247 0.881958 0 7.30644 0 15.2314C0 23.1564 6.4247 29.5809 14.3497 29.5809Z" fill="#165BAA"/>
<path d="M77.0751 29.5809C85.0001 29.5809 91.4248 23.1564 91.4248 15.2314C91.4248 7.30644 85.0001 0.881958 77.0751 0.881958C69.1501 0.881958 62.726 7.30644 62.726 15.2314C62.726 23.1564 69.1501 29.5809 77.0751 29.5809Z" fill="#165BAA"/>
<path d="M139.799 29.5809C147.724 29.5809 154.148 23.1564 154.148 15.2314C154.148 7.30644 147.724 0.881958 139.799 0.881958C131.874 0.881958 125.449 7.30644 125.449 15.2314C125.449 23.1564 131.874 29.5809 139.799 29.5809Z" fill="#165BAA"/>
<path d="M202.632 29.5809C210.557 29.5809 216.981 23.1564 216.981 15.2314C216.981 7.30644 210.557 0.881958 202.632 0.881958C194.707 0.881958 188.283 7.30644 188.283 15.2314C188.283 23.1564 194.707 29.5809 202.632 29.5809Z" fill="#165BAA"/>
<path d="M265.358 29.5809C273.283 29.5809 279.707 23.1564 279.707 15.2314C279.707 7.30644 273.283 0.881958 265.358 0.881958C257.433 0.881958 251.009 7.30644 251.009 15.2314C251.009 23.1564 257.433 29.5809 265.358 29.5809Z" fill="#165BAA"/>
<path d="M328.19 29.5809C336.115 29.5809 342.54 23.1564 342.54 15.2314C342.54 7.30644 336.115 0.881958 328.19 0.881958C320.265 0.881958 313.841 7.30644 313.841 15.2314C313.841 23.1564 320.265 29.5809 328.19 29.5809Z" fill="#165BAA"/>
<path d="M14.3497 81.326C22.2747 81.326 28.6989 74.9016 28.6989 66.9766C28.6989 59.0515 22.2747 52.6271 14.3497 52.6271C6.4247 52.6271 0 59.0515 0 66.9766C0 74.9016 6.4247 81.326 14.3497 81.326Z" fill="#165BAA"/>
<path d="M77.0751 81.3261C85.0001 81.3261 91.4248 74.9016 91.4248 66.9766C91.4248 59.0516 85.0001 52.6271 77.0751 52.6271C69.1501 52.6271 62.726 59.0516 62.726 66.9766C62.726 74.9016 69.1501 81.3261 77.0751 81.3261Z" fill="#165BAA"/>
<path d="M139.799 81.3261C147.724 81.3261 154.148 74.9016 154.148 66.9766C154.148 59.0516 147.724 52.6271 139.799 52.6271C131.874 52.6271 125.449 59.0516 125.449 66.9766C125.449 74.9016 131.874 81.3261 139.799 81.3261Z" fill="#165BAA"/>
<path d="M202.632 81.3261C210.557 81.3261 216.981 74.9016 216.981 66.9766C216.981 59.0516 210.557 52.6271 202.632 52.6271C194.707 52.6271 188.283 59.0516 188.283 66.9766C188.283 74.9016 194.707 81.3261 202.632 81.3261Z" fill="#165BAA"/>
<path d="M265.358 81.3261C273.283 81.3261 279.707 74.9016 279.707 66.9766C279.707 59.0516 273.283 52.6271 265.358 52.6271C257.433 52.6271 251.009 59.0516 251.009 66.9766C251.009 74.9016 257.433 81.3261 265.358 81.3261Z" fill="#165BAA"/>
<path d="M328.19 81.3261C336.115 81.3261 342.54 74.9016 342.54 66.9766C342.54 59.0516 336.115 52.6271 328.19 52.6271C320.265 52.6271 313.841 59.0516 313.841 66.9766C313.841 74.9016 320.265 81.3261 328.19 81.3261Z" fill="#165BAA"/>
<path d="M14.3497 133.071C22.2747 133.071 28.6989 126.647 28.6989 118.722C28.6989 110.797 22.2747 104.372 14.3497 104.372C6.4247 104.372 0 110.797 0 118.722C0 126.647 6.4247 133.071 14.3497 133.071Z" fill="#165BAA"/>
<path d="M77.0751 133.071C85.0001 133.071 91.4248 126.647 91.4248 118.722C91.4248 110.797 85.0001 104.372 77.0751 104.372C69.1501 104.372 62.726 110.797 62.726 118.722C62.726 126.647 69.1501 133.071 77.0751 133.071Z" fill="#165BAA"/>
<path d="M139.799 133.071C147.724 133.071 154.148 126.647 154.148 118.722C154.148 110.797 147.724 104.372 139.799 104.372C131.874 104.372 125.449 110.797 125.449 118.722C125.449 126.647 131.874 133.071 139.799 133.071Z" fill="#165BAA"/>
<path d="M202.632 133.071C210.557 133.071 216.981 126.647 216.981 118.722C216.981 110.797 210.557 104.372 202.632 104.372C194.707 104.372 188.283 110.797 188.283 118.722C188.283 126.647 194.707 133.071 202.632 133.071Z" fill="#165BAA"/>
<path d="M265.358 133.071C273.283 133.071 279.707 126.647 279.707 118.722C279.707 110.797 273.283 104.372 265.358 104.372C257.433 104.372 251.009 110.797 251.009 118.722C251.009 126.647 257.433 133.071 265.358 133.071Z" fill="#165BAA"/>
<path d="M328.19 133.071C336.115 133.071 342.54 126.647 342.54 118.722C342.54 110.797 336.115 104.372 328.19 104.372C320.265 104.372 313.841 110.797 313.841 118.722C313.841 126.647 320.265 133.071 328.19 133.071Z" fill="#165BAA"/>
<path d="M14.3497 184.816C22.2747 184.816 28.6989 178.392 28.6989 170.467C28.6989 162.542 22.2747 156.117 14.3497 156.117C6.4247 156.117 0 162.542 0 170.467C0 178.392 6.4247 184.816 14.3497 184.816Z" fill="#165BAA"/>
<path d="M77.0751 184.816C85.0001 184.816 91.4248 178.392 91.4248 170.467C91.4248 162.542 85.0001 156.117 77.0751 156.117C69.1501 156.117 62.726 162.542 62.726 170.467C62.726 178.392 69.1501 184.816 77.0751 184.816Z" fill="#165BAA"/>
<path d="M139.799 184.816C147.724 184.816 154.148 178.392 154.148 170.467C154.148 162.542 147.724 156.117 139.799 156.117C131.874 156.117 125.449 162.542 125.449 170.467C125.449 178.392 131.874 184.816 139.799 184.816Z" fill="#165BAA"/>
<path d="M202.632 184.816C210.557 184.816 216.981 178.392 216.981 170.467C216.981 162.542 210.557 156.117 202.632 156.117C194.707 156.117 188.283 162.542 188.283 170.467C188.283 178.392 194.707 184.816 202.632 184.816Z" fill="#165BAA"/>
<path d="M265.358 184.816C273.283 184.816 279.707 178.392 279.707 170.467C279.707 162.542 273.283 156.117 265.358 156.117C257.433 156.117 251.009 162.542 251.009 170.467C251.009 178.392 257.433 184.816 265.358 184.816Z" fill="#165BAA"/>
<path d="M328.19 184.816C336.115 184.816 342.54 178.392 342.54 170.467C342.54 162.542 336.115 156.117 328.19 156.117C320.265 156.117 313.841 162.542 313.841 170.467C313.841 178.392 320.265 184.816 328.19 184.816Z" fill="#165BAA"/>
<path d="M14.3497 236.561C22.2747 236.561 28.6989 230.137 28.6989 222.212C28.6989 214.287 22.2747 207.862 14.3497 207.862C6.4247 207.862 0 214.287 0 222.212C0 230.137 6.4247 236.561 14.3497 236.561Z" fill="#165BAA"/>
<path d="M77.0751 236.561C85.0001 236.561 91.4248 230.137 91.4248 222.212C91.4248 214.287 85.0001 207.862 77.0751 207.862C69.1501 207.862 62.726 214.287 62.726 222.212C62.726 230.137 69.1501 236.561 77.0751 236.561Z" fill="#165BAA"/>
<path d="M139.799 236.561C147.724 236.561 154.148 230.137 154.148 222.212C154.148 214.287 147.724 207.862 139.799 207.862C131.874 207.862 125.449 214.287 125.449 222.212C125.449 230.137 131.874 236.561 139.799 236.561Z" fill="#165BAA"/>
<path d="M202.632 236.561C210.557 236.561 216.981 230.137 216.981 222.212C216.981 214.287 210.557 207.862 202.632 207.862C194.707 207.862 188.283 214.287 188.283 222.212C188.283 230.137 194.707 236.561 202.632 236.561Z" fill="#165BAA"/>
<path d="M265.358 236.561C273.283 236.561 279.707 230.137 279.707 222.212C279.707 214.287 273.283 207.862 265.358 207.862C257.433 207.862 251.009 214.287 251.009 222.212C251.009 230.137 257.433 236.561 265.358 236.561Z" fill="#165BAA"/>
<path d="M328.19 236.561C336.115 236.561 342.54 230.137 342.54 222.212C342.54 214.287 336.115 207.862 328.19 207.862C320.265 207.862 313.841 214.287 313.841 222.212C313.841 230.137 320.265 236.561 328.19 236.561Z" fill="#165BAA"/>
<path d="M14.3497 288.307C22.2747 288.307 28.6989 281.882 28.6989 273.957C28.6989 266.032 22.2747 259.608 14.3497 259.608C6.4247 259.608 0 266.032 0 273.957C0 281.882 6.4247 288.307 14.3497 288.307Z" fill="#165BAA"/>
<path d="M77.0751 288.306C85.0001 288.306 91.4248 281.882 91.4248 273.957C91.4248 266.032 85.0001 259.607 77.0751 259.607C69.1501 259.607 62.726 266.032 62.726 273.957C62.726 281.882 69.1501 288.306 77.0751 288.306Z" fill="#165BAA"/>
<path d="M139.799 288.306C147.724 288.306 154.148 281.882 154.148 273.957C154.148 266.032 147.724 259.607 139.799 259.607C131.874 259.607 125.449 266.032 125.449 273.957C125.449 281.882 131.874 288.306 139.799 288.306Z" fill="#165BAA"/>
<path d="M202.632 288.306C210.557 288.306 216.981 281.882 216.981 273.957C216.981 266.032 210.557 259.607 202.632 259.607C194.707 259.607 188.283 266.032 188.283 273.957C188.283 281.882 194.707 288.306 202.632 288.306Z" fill="#165BAA"/>
<path d="M265.358 288.306C273.283 288.306 279.707 281.882 279.707 273.957C279.707 266.032 273.283 259.607 265.358 259.607C257.433 259.607 251.009 266.032 251.009 273.957C251.009 281.882 257.433 288.306 265.358 288.306Z" fill="#165BAA"/>
<path d="M328.19 288.306C336.115 288.306 342.54 281.882 342.54 273.957C342.54 266.032 336.115 259.607 328.19 259.607C320.265 259.607 313.841 266.032 313.841 273.957C313.841 281.882 320.265 288.306 328.19 288.306Z" fill="#165BAA"/>
<path d="M14.3497 340.052C22.2747 340.052 28.6989 333.627 28.6989 325.702C28.6989 317.777 22.2747 311.353 14.3497 311.353C6.4247 311.353 0 317.777 0 325.702C0 333.627 6.4247 340.052 14.3497 340.052Z" fill="#165BAA"/>
<path d="M77.0751 340.052C85.0001 340.052 91.4248 333.627 91.4248 325.702C91.4248 317.777 85.0001 311.353 77.0751 311.353C69.1501 311.353 62.726 317.777 62.726 325.702C62.726 333.627 69.1501 340.052 77.0751 340.052Z" fill="#165BAA"/>
<path d="M139.799 340.052C147.724 340.052 154.148 333.627 154.148 325.702C154.148 317.777 147.724 311.353 139.799 311.353C131.874 311.353 125.449 317.777 125.449 325.702C125.449 333.627 131.874 340.052 139.799 340.052Z" fill="#165BAA"/>
<path d="M202.632 340.052C210.557 340.052 216.981 333.627 216.981 325.702C216.981 317.777 210.557 311.353 202.632 311.353C194.707 311.353 188.283 317.777 188.283 325.702C188.283 333.627 194.707 340.052 202.632 340.052Z" fill="#165BAA"/>
<path d="M265.358 340.052C273.283 340.052 279.707 333.627 279.707 325.702C279.707 317.777 273.283 311.353 265.358 311.353C257.433 311.353 251.009 317.777 251.009 325.702C251.009 333.627 257.433 340.052 265.358 340.052Z" fill="#165BAA"/>
<path d="M328.19 340.052C336.115 340.052 342.54 333.627 342.54 325.702C342.54 317.777 336.115 311.353 328.19 311.353C320.265 311.353 313.841 317.777 313.841 325.702C313.841 333.627 320.265 340.052 328.19 340.052Z" fill="#165BAA"/>
</svg>
